<?xml version="1.0" encoding="UTF-8" standalone="no"?>
<!-- Created with Inkscape (http://www.inkscape.org/) -->

<svg
   xmlns:osb="http://www.openswatchbook.org/uri/2009/osb"
   xmlns:dc="http://purl.org/dc/elements/1.1/"
   xmlns:cc="http://creativecommons.org/ns#"
   xmlns:rdf="http://www.w3.org/1999/02/22-rdf-syntax-ns#"
   xmlns:svg="http://www.w3.org/2000/svg"
   xmlns="http://www.w3.org/2000/svg"
   xmlns:sodipodi="http://sodipodi.sourceforge.net/DTD/sodipodi-0.dtd"
   xmlns:inkscape="http://www.inkscape.org/namespaces/inkscape"
   width="1052.3622"
   height="744.09448"
   id="svg2"
   version="1.1"
   inkscape:version="0.48.2 r9819"
   sodipodi:docname="RogaloLogo.svg">
  <defs
     id="defs4">
    <linearGradient
       id="linearGradient4059"
       osb:paint="solid">
      <stop
         style="stop-color:#000000;stop-opacity:1;"
         offset="0"
         id="stop4061" />
    </linearGradient>
  </defs>
  <sodipodi:namedview
     id="base"
     pagecolor="#ffffff"
     bordercolor="#666666"
     borderopacity="1.0"
     inkscape:pageopacity="0.0"
     inkscape:pageshadow="2"
     inkscape:zoom="1"
     inkscape:cx="362.02872"
     inkscape:cy="579.98466"
     inkscape:document-units="px"
     inkscape:current-layer="layer1"
     showgrid="false"
     showguides="true"
     inkscape:guide-bbox="true"
     inkscape:window-width="1680"
     inkscape:window-height="987"
     inkscape:window-x="-4"
     inkscape:window-y="-4"
     inkscape:window-maximized="1">
    <sodipodi:guide
       orientation="1,0"
       position="50,603.75"
       id="guide2987" />
    <sodipodi:guide
       orientation="0,1"
       position="34.532374,700"
       id="guide2991" />
    <sodipodi:guide
       orientation="0,1"
       position="-11.5,500"
       id="guide3013" />
    <sodipodi:guide
       orientation="0,1"
       position="-9.202454,549.69325"
       id="guide3044" />
    <sodipodi:guide
       orientation="1,0"
       position="300,945"
       id="guide3082" />
  </sodipodi:namedview>
  <metadata
     id="metadata7">
    <rdf:RDF>
      <cc:Work
         rdf:about="">
        <dc:format>image/svg+xml</dc:format>
        <dc:type
           rdf:resource="http://purl.org/dc/dcmitype/StillImage" />
        <dc:title />
      </cc:Work>
    </rdf:RDF>
  </metadata>
  <g
     inkscape:label="Layer 1"
     inkscape:groupmode="layer"
     id="layer1"
     transform="translate(0,-308.26768)">
    <rect
       style="fill:#f4eed7;fill-opacity:1;stroke-width:4;stroke-miterlimit:4;stroke-dasharray:none;stroke-dashoffset:0"
       id="rect3095"
       width="650"
       height="230"
       x="250"
       y="308.36215" />
    <path
       sodipodi:type="arc"
       style="fill:#374548;fill-opacity:1;stroke-width:4;stroke-miterlimit:4;stroke-dasharray:none;stroke-dashoffset:0"
       id="path2985"
       sodipodi:cx="75"
       sodipodi:cy="94.094482"
       sodipodi:rx="29.375"
       sodipodi:ry="29.375"
       d="m 104.375,94.094482 a 29.375,29.375 0 1 1 -58.75,0 29.375,29.375 0 1 1 58.75,0 z"
       transform="matrix(0.85106383,0,0,0.85106383,261.17021,307.28175)" />
    <path
       sodipodi:type="arc"
       style="fill:#374548;fill-opacity:1;stroke-width:4;stroke-miterlimit:4;stroke-dasharray:none;stroke-dashoffset:0"
       id="path2985-1"
       sodipodi:cx="75"
       sodipodi:cy="94.094482"
       sodipodi:rx="29.375"
       sodipodi:ry="29.375"
       d="m 104.375,94.094482 a 29.375,29.375 0 1 1 -58.75,0 29.375,29.375 0 1 1 58.75,0 z"
       transform="matrix(0.85106383,0,0,0.85106383,261.17021,357.28175)" />
    <rect
       style="fill:#374548;fill-opacity:1;stroke-width:4;stroke-miterlimit:4;stroke-dasharray:none;stroke-dashoffset:0"
       id="rect3015"
       width="50"
       height="50"
       x="300"
       y="387.36218" />
    <path
       sodipodi:type="arc"
       style="fill:#374548;fill-opacity:1;stroke-width:4;stroke-miterlimit:4;stroke-dasharray:none;stroke-dashoffset:0"
       id="path2985-7"
       sodipodi:cx="75"
       sodipodi:cy="94.094482"
       sodipodi:rx="29.375"
       sodipodi:ry="29.375"
       d="m 104.375,94.094482 a 29.375,29.375 0 1 1 -58.75,0 29.375,29.375 0 1 1 58.75,0 z"
       transform="matrix(0.85106383,0,0,0.85106383,311.17021,307.28175)" />
    <path
       sodipodi:type="arc"
       style="fill:#374548;fill-opacity:1;stroke-width:4;stroke-miterlimit:4;stroke-dasharray:none;stroke-dashoffset:0"
       id="path2985-4"
       sodipodi:cx="75"
       sodipodi:cy="94.094482"
       sodipodi:rx="29.375"
       sodipodi:ry="29.375"
       d="m 104.375,94.094482 a 29.375,29.375 0 1 1 -58.75,0 29.375,29.375 0 1 1 58.75,0 z"
       transform="matrix(1.7021277,0,0,1.7021277,324.34042,252.20134)" />
    <path
       sodipodi:type="arc"
       style="fill:#f4eed7;fill-opacity:1;stroke-width:4;stroke-miterlimit:4;stroke-dasharray:none;stroke-dashoffset:0"
       id="path2985-0"
       sodipodi:cx="75"
       sodipodi:cy="94.094482"
       sodipodi:rx="29.375"
       sodipodi:ry="29.375"
       d="m 104.375,94.094482 a 29.375,29.375 0 1 1 -58.75,0 29.375,29.375 0 1 1 58.75,0 z"
       transform="matrix(0.25531915,0,0,0.25531915,432.85106,388.33804)" />
    <path
       sodipodi:type="arc"
       style="fill:#374548;fill-opacity:1;stroke-width:4;stroke-miterlimit:4;stroke-dasharray:none;stroke-dashoffset:0"
       id="path2985-4-9"
       sodipodi:cx="75"
       sodipodi:cy="94.094482"
       sodipodi:rx="29.375"
       sodipodi:ry="29.375"
       d="m 104.375,94.094482 a 29.375,29.375 0 1 1 -58.75,0 29.375,29.375 0 1 1 58.75,0 z"
       transform="matrix(1.7021277,0,0,1.7021277,426.55501,252.20134)" />
    <path
       sodipodi:type="arc"
       style="fill:#f4eed7;fill-opacity:1;stroke-width:4;stroke-miterlimit:4;stroke-dasharray:none;stroke-dashoffset:0"
       id="path2985-0-4"
       sodipodi:cx="75"
       sodipodi:cy="94.094482"
       sodipodi:rx="29.375"
       sodipodi:ry="29.375"
       d="m 104.375,94.094482 a 29.375,29.375 0 1 1 -58.75,0 29.375,29.375 0 1 1 58.75,0 z"
       transform="matrix(0.25531915,0,0,0.25531915,534.85106,388.33804)" />
    <path
       sodipodi:type="arc"
       style="fill:#374548;fill-opacity:1;stroke-width:4;stroke-miterlimit:4;stroke-dasharray:none;stroke-dashoffset:0"
       id="path2985-8"
       sodipodi:cx="75"
       sodipodi:cy="94.094482"
       sodipodi:rx="29.375"
       sodipodi:ry="29.375"
       d="m 104.375,94.094482 a 29.375,29.375 0 1 1 -58.75,0 29.375,29.375 0 1 1 58.75,0 z"
       transform="matrix(0.85106383,0,0,0.85106383,465.3848,407.28175)" />
    <path
       sodipodi:type="arc"
       style="fill:#374548;fill-opacity:1;stroke-width:4;stroke-miterlimit:4;stroke-dasharray:none;stroke-dashoffset:0"
       id="path2985-1-8"
       sodipodi:cx="75"
       sodipodi:cy="94.094482"
       sodipodi:rx="29.375"
       sodipodi:ry="29.375"
       d="m 104.375,94.094482 a 29.375,29.375 0 1 1 -58.75,0 29.375,29.375 0 1 1 58.75,0 z"
       transform="matrix(0.85106383,0,0,0.85106383,515.3848,407.28175)" />
    <rect
       style="fill:#374548;fill-opacity:1;stroke-width:4;stroke-miterlimit:4;stroke-dasharray:none;stroke-dashoffset:0"
       id="rect3015-2"
       width="50"
       height="50"
       x="529.2146"
       y="462.36218" />
    <path
       sodipodi:type="arc"
       style="fill:#374548;fill-opacity:1;stroke-width:4;stroke-miterlimit:4;stroke-dasharray:none;stroke-dashoffset:0"
       id="path2985-1-8-5"
       sodipodi:cx="75"
       sodipodi:cy="94.094482"
       sodipodi:rx="29.375"
       sodipodi:ry="29.375"
       d="m 104.375,94.094482 a 29.375,29.375 0 1 1 -58.75,0 29.375,29.375 0 1 1 58.75,0 z"
       transform="matrix(0.25531915,0,0,0.25531915,577.56565,345.83804)" />
    <rect
       style="fill:#374548;fill-opacity:1;stroke-width:4;stroke-miterlimit:4;stroke-dasharray:none;stroke-dashoffset:0"
       id="rect3015-2-2"
       width="25"
       height="50"
       x="681"
       y="412.36218" />
    <path
       sodipodi:type="arc"
       style="fill:#374548;fill-opacity:1;stroke-width:4;stroke-miterlimit:4;stroke-dasharray:none;stroke-dashoffset:0"
       id="path2985-1-8-7"
       sodipodi:cx="75"
       sodipodi:cy="94.094482"
       sodipodi:rx="29.375"
       sodipodi:ry="29.375"
       d="m 104.375,94.094482 a 29.375,29.375 0 1 1 -58.75,0 29.375,29.375 0 1 1 58.75,0 z"
       transform="matrix(0.85106383,0,0,0.85106383,567.17021,357.28176)" />
    <path
       sodipodi:type="arc"
       style="fill:#374548;fill-opacity:1;stroke-width:4;stroke-miterlimit:4;stroke-dasharray:none;stroke-dashoffset:0"
       id="path2985-1-8-7-1"
       sodipodi:cx="75"
       sodipodi:cy="94.094482"
       sodipodi:rx="29.375"
       sodipodi:ry="29.375"
       d="m 104.375,94.094482 a 29.375,29.375 0 1 1 -58.75,0 29.375,29.375 0 1 1 58.75,0 z"
       transform="matrix(0.85106383,0,0,0.85106383,567.17021,307.28176)" />
    <rect
       style="fill:#374548;fill-opacity:1;stroke-width:4;stroke-miterlimit:4;stroke-dasharray:none;stroke-dashoffset:0"
       id="rect3015-2-2-4"
       width="25"
       height="50"
       x="633"
       y="362.36215" />
    <path
       sodipodi:type="arc"
       style="fill:#374548;fill-opacity:1;stroke-width:4;stroke-miterlimit:4;stroke-dasharray:none;stroke-dashoffset:0"
       id="path2985-1-3"
       sodipodi:cx="75"
       sodipodi:cy="94.094482"
       sodipodi:rx="29.375"
       sodipodi:ry="29.375"
       d="m 104.375,94.094482 a 29.375,29.375 0 1 1 -58.75,0 29.375,29.375 0 1 1 58.75,0 z"
       transform="matrix(0.85106383,0,0,0.85106383,669.17021,357.28175)" />
    <path
       sodipodi:type="arc"
       style="fill:#374548;fill-opacity:1;stroke-width:4;stroke-miterlimit:4;stroke-dasharray:none;stroke-dashoffset:0"
       id="path2985-1-2"
       sodipodi:cx="75"
       sodipodi:cy="94.094482"
       sodipodi:rx="29.375"
       sodipodi:ry="29.375"
       d="m 104.375,94.094482 a 29.375,29.375 0 1 1 -58.75,0 29.375,29.375 0 1 1 58.75,0 z"
       transform="matrix(0.85106383,0,0,0.85106383,669.17021,257.28175)" />
    <rect
       style="fill:#374548;fill-opacity:1;stroke-width:4;stroke-miterlimit:4;stroke-dasharray:none;stroke-dashoffset:0"
       id="rect3015-2-21"
       width="50"
       height="100"
       x="708"
       y="337.36215" />
    <path
       sodipodi:type="arc"
       style="fill:#374548;fill-opacity:1;stroke-width:4;stroke-miterlimit:4;stroke-dasharray:none;stroke-dashoffset:0"
       id="path2985-4-6"
       sodipodi:cx="75"
       sodipodi:cy="94.094482"
       sodipodi:rx="29.375"
       sodipodi:ry="29.375"
       d="m 104.375,94.094482 a 29.375,29.375 0 1 1 -58.75,0 29.375,29.375 0 1 1 58.75,0 z"
       transform="matrix(1.7021277,0,0,1.7021277,682.34042,252.20134)" />
    <path
       sodipodi:type="arc"
       style="fill:#f4eed7;fill-opacity:1;stroke-width:4;stroke-miterlimit:4;stroke-dasharray:none;stroke-dashoffset:0"
       id="path2985-0-4-8"
       sodipodi:cx="75"
       sodipodi:cy="94.094482"
       sodipodi:rx="29.375"
       sodipodi:ry="29.375"
       d="m 104.375,94.094482 a 29.375,29.375 0 1 1 -58.75,0 29.375,29.375 0 1 1 58.75,0 z"
       transform="matrix(0.25531915,0,0,0.25531915,791.06565,388.33804)" />
    <path
       sodipodi:type="arc"
       style="fill:#374548;fill-opacity:1;stroke-width:4;stroke-miterlimit:4;stroke-dasharray:none;stroke-dashoffset:0"
       id="path2985-1-8-7-17"
       sodipodi:cx="75"
       sodipodi:cy="94.094482"
       sodipodi:rx="29.375"
       sodipodi:ry="29.375"
       d="m 104.375,94.094482 a 29.375,29.375 0 1 1 -58.75,0 29.375,29.375 0 1 1 58.75,0 z"
       transform="matrix(0.85106383,0,0,0.85106383,617.17021,357.28175)" />
    <path
       sodipodi:type="arc"
       style="fill:#374548;fill-opacity:1;stroke-width:4;stroke-miterlimit:4;stroke-dasharray:none;stroke-dashoffset:0"
       id="path2985-4-9-4"
       sodipodi:cx="75"
       sodipodi:cy="94.094482"
       sodipodi:rx="29.375"
       sodipodi:ry="29.375"
       d="M 104.375,94.094482 A 29.375,29.375 0 0 1 75.000001,123.46948 L 75,94.094482 z"
       transform="matrix(0,-1.7021277,1.7021277,0,495.83918,540.02174)"
       sodipodi:start="0"
       sodipodi:end="1.5707963" />
    <rect
       style="fill:#374548;fill-opacity:1;stroke-width:4;stroke-miterlimit:4;stroke-dasharray:none;stroke-dashoffset:0"
       id="rect3015-2-0"
       width="26"
       height="50"
       x="411.36218"
       y="-706"
       transform="matrix(0,1,-1,0,0,0)" />
    <rect
       style="fill:#f4eed7;fill-opacity:1;stroke-width:10;stroke-miterlimit:4;stroke-dasharray:none;stroke-dashoffset:0"
       id="rect3095-1"
       width="250.21458"
       height="230"
       x="0"
       y="308.36218" />
    <path
       style="fill:#2c55a0;fill-opacity:1;stroke:#2c55a0;stroke-width:5;stroke-miterlimit:4;stroke-opacity:1;stroke-dasharray:none;stroke-dashoffset:0"
       d="m 117.5,405.86216 -38.5,3 34.5,89.5 z"
       id="path4071"
       inkscape:connector-curvature="0"
       sodipodi:nodetypes="cccc" />
    <path
       sodipodi:type="arc"
       style="fill:#373e48;fill-opacity:1;stroke-width:4;stroke-miterlimit:4;stroke-dasharray:none;stroke-dashoffset:0"
       id="path3061-7"
       sodipodi:cx="75"
       sodipodi:cy="647.09448"
       sodipodi:rx="25"
       sodipodi:ry="25"
       d="m 100,647.09448 a 25,25 0 1 1 -50,0 25,25 0 1 1 50,0 z"
       transform="translate(40,-139.73232)" />
    <path
       sodipodi:type="arc"
       style="fill:#d4aa00;fill-opacity:1;stroke-width:4;stroke-miterlimit:4;stroke-dasharray:none;stroke-dashoffset:0"
       id="path3063-4"
       sodipodi:cx="128.75"
       sodipodi:cy="665.84448"
       sodipodi:rx="12.25"
       sodipodi:ry="12.25"
       d="m 141,665.84448 a 12.25,12.25 0 1 1 -24.5,0 12.25,12.25 0 1 1 24.5,0 z"
       transform="matrix(1.2244898,0,0,1.2244898,-42.653062,-307.95761)" />
    <path
       style="fill:#2c55a0;fill-opacity:1;stroke:#2c55a0;stroke-width:4.75284529;stroke-miterlimit:4;stroke-opacity:1;stroke-dasharray:none;stroke-dashoffset:0"
       d="m 194.21459,470.36216 -88.2931,-68 -5.42149,17 z"
       id="path4109"
       inkscape:connector-curvature="0" />
    <path
       sodipodi:type="arc"
       style="fill:#373e48;fill-opacity:1;stroke-width:4;stroke-miterlimit:4;stroke-dasharray:none;stroke-dashoffset:0"
       id="path3061-7-0"
       sodipodi:cx="75"
       sodipodi:cy="647.09448"
       sodipodi:rx="25"
       sodipodi:ry="25"
       d="m 100,647.09448 a 25,25 0 1 1 -50,0 25,25 0 1 1 50,0 z"
       transform="translate(115,-178.73232)" />
    <path
       sodipodi:type="arc"
       style="fill:#d4aa00;fill-opacity:1;stroke-width:4;stroke-miterlimit:4;stroke-dasharray:none;stroke-dashoffset:0"
       id="path3063-4-9"
       sodipodi:cx="128.75"
       sodipodi:cy="665.84448"
       sodipodi:rx="12.25"
       sodipodi:ry="12.25"
       d="m 141,665.84448 a 12.25,12.25 0 1 1 -24.5,0 12.25,12.25 0 1 1 24.5,0 z"
       transform="matrix(1.2244898,0,0,1.2244898,32.346938,-346.95762)" />
    <path
       style="fill:#2c55a0;fill-opacity:1;stroke:#2c55a0;stroke-width:5;stroke-miterlimit:4;stroke-opacity:1;stroke-dasharray:none;stroke-dashoffset:0"
       d="m 200.21459,389.36216 -108.71459,15 7.5,21 z"
       id="path4149"
       inkscape:connector-curvature="0" />
    <path
       sodipodi:type="arc"
       style="fill:#373e48;fill-opacity:1;stroke-width:4;stroke-miterlimit:4;stroke-dasharray:none;stroke-dashoffset:0"
       id="path3045"
       sodipodi:cx="170.75"
       sodipodi:cy="498.84448"
       sodipodi:rx="54.75"
       sodipodi:ry="54.75"
       d="m 225.5,498.84448 a 54.75,54.75 0 1 1 -109.5,0 54.75,54.75 0 1 1 109.5,0 z"
       transform="matrix(0.91324201,0,0,0.91324201,-55.936073,-43.20358)" />
    <path
       sodipodi:type="arc"
       style="fill:#d35f5f;fill-opacity:1;stroke-width:4;stroke-miterlimit:4;stroke-dasharray:none;stroke-dashoffset:0"
       id="path3051"
       sodipodi:cx="170.25"
       sodipodi:cy="503.34448"
       sodipodi:rx="47.25"
       sodipodi:ry="47.25"
       d="m 217.5,503.34448 a 47.25,47.25 0 1 1 -94.5,0 47.25,47.25 0 1 1 94.5,0 z"
       transform="matrix(0.84656085,0,0,0.84656085,-44.126985,-13.74957)" />
    <path
       sodipodi:type="arc"
       style="fill:#373e48;fill-opacity:1;stroke-width:4;stroke-miterlimit:4;stroke-dasharray:none;stroke-dashoffset:0"
       id="path3061"
       sodipodi:cx="75"
       sodipodi:cy="647.09448"
       sodipodi:rx="25"
       sodipodi:ry="25"
       d="m 100,647.09448 a 25,25 0 1 1 -50,0 25,25 0 1 1 50,0 z"
       transform="translate(-15,-194.73232)" />
    <path
       sodipodi:type="arc"
       style="fill:#d4aa00;fill-opacity:1;stroke-width:4;stroke-miterlimit:4;stroke-dasharray:none;stroke-dashoffset:0"
       id="path3063"
       sodipodi:cx="128.75"
       sodipodi:cy="665.84448"
       sodipodi:rx="12.25"
       sodipodi:ry="12.25"
       d="m 141,665.84448 a 12.25,12.25 0 1 1 -24.5,0 12.25,12.25 0 1 1 24.5,0 z"
       transform="matrix(1.2244898,0,0,1.2244898,-97.653062,-362.95762)" />
    <path
       sodipodi:type="arc"
       style="fill:#373e48;fill-opacity:1;stroke-width:4;stroke-miterlimit:4;stroke-dasharray:none;stroke-dashoffset:0"
       id="path3063-4-9-4"
       sodipodi:cx="128.75"
       sodipodi:cy="665.84448"
       sodipodi:rx="12.25"
       sodipodi:ry="12.25"
       d="m 141,665.84448 a 12.25,12.25 0 1 1 -24.5,0 12.25,12.25 0 1 1 24.5,0 z"
       transform="matrix(1.2244898,0,0,1.2244898,42.346938,-425.95762)" />
    <path
       sodipodi:type="arc"
       style="fill:#d4aa00;fill-opacity:1;stroke-width:4;stroke-miterlimit:4;stroke-dasharray:none;stroke-dashoffset:0"
       id="path3063-4-9-8"
       sodipodi:cx="128.75"
       sodipodi:cy="665.84448"
       sodipodi:rx="12.25"
       sodipodi:ry="12.25"
       d="m 141,665.84448 a 12.25,12.25 0 1 1 -24.5,0 12.25,12.25 0 1 1 24.5,0 z"
       transform="matrix(0.40816327,0,0,0.40816327,147.44898,117.5889)" />
  </g>
</svg>
